<svg xmlns="http://www.w3.org/2000/svg" width="820" height="500" viewBox="0 0 820 500">
<rect width="100%" height="100%" fill="white"/>
<text x="410.0" y="30" text-anchor="middle" font-family="sans-serif" font-size="20" font-weight="600">Semantic task success vs. lane count</text>
<line x1="80" y1="430.0" x2="790" y2="430.0" stroke="#e5e7eb"/>
<text x="68" y="435.0" text-anchor="end" font-family="sans-serif" font-size="12">0.0</text>
<line x1="80" y1="356.0" x2="790" y2="356.0" stroke="#e5e7eb"/>
<text x="68" y="361.0" text-anchor="end" font-family="sans-serif" font-size="12">0.2</text>
<line x1="80" y1="282.0" x2="790" y2="282.0" stroke="#e5e7eb"/>
<text x="68" y="287.0" text-anchor="end" font-family="sans-serif" font-size="12">0.4</text>
<line x1="80" y1="208.0" x2="790" y2="208.0" stroke="#e5e7eb"/>
<text x="68" y="213.0" text-anchor="end" font-family="sans-serif" font-size="12">0.6</text>
<line x1="80" y1="134.0" x2="790" y2="134.0" stroke="#e5e7eb"/>
<text x="68" y="139.0" text-anchor="end" font-family="sans-serif" font-size="12">0.8</text>
<line x1="80" y1="60.0" x2="790" y2="60.0" stroke="#e5e7eb"/>
<text x="68" y="65.0" text-anchor="end" font-family="sans-serif" font-size="12">1.0</text>
<line x1="80" y1="60" x2="80" y2="430" stroke="#111827"/>
<line x1="80" y1="430" x2="790" y2="430" stroke="#111827"/>
<text x="20" y="245.0" transform="rotate(-90 20 245.0)" text-anchor="middle" font-family="sans-serif" font-size="13">success rate</text>
<text x="435.0" y="480" text-anchor="middle" font-family="sans-serif" font-size="13">lanes</text>
<text x="80.0" y="454" text-anchor="middle" font-family="sans-serif" font-size="12">1</text>
<text x="316.7" y="454" text-anchor="middle" font-family="sans-serif" font-size="12">2</text>
<text x="553.3" y="454" text-anchor="middle" font-family="sans-serif" font-size="12">4</text>
<text x="790.0" y="454" text-anchor="middle" font-family="sans-serif" font-size="12">8</text>
<line x1="80.0" y1="60.0" x2="80.0" y2="162.7" stroke="#2563eb"/>
<line x1="75.0" y1="60.0" x2="85.0" y2="60.0" stroke="#2563eb"/>
<line x1="75.0" y1="162.7" x2="85.0" y2="162.7" stroke="#2563eb"/>
<circle cx="80.0" cy="60.0" r="5" fill="#2563eb"/>
<line x1="316.7" y1="99.9" x2="316.7" y2="283.2" stroke="#2563eb"/>
<line x1="311.7" y1="99.9" x2="321.7" y2="99.9" stroke="#2563eb"/>
<line x1="311.7" y1="283.2" x2="321.7" y2="283.2" stroke="#2563eb"/>
<circle cx="316.7" cy="171.0" r="5" fill="#2563eb"/>
<line x1="553.3" y1="280.5" x2="553.3" y2="423.4" stroke="#2563eb"/>
<line x1="548.3" y1="280.5" x2="558.3" y2="280.5" stroke="#2563eb"/>
<line x1="548.3" y1="423.4" x2="558.3" y2="423.4" stroke="#2563eb"/>
<circle cx="553.3" cy="393.0" r="5" fill="#2563eb"/>
<line x1="790.0" y1="241.4" x2="790.0" y2="409.0" stroke="#2563eb"/>
<line x1="785.0" y1="241.4" x2="795.0" y2="241.4" stroke="#2563eb"/>
<line x1="785.0" y1="409.0" x2="795.0" y2="409.0" stroke="#2563eb"/>
<circle cx="790.0" cy="356.0" r="5" fill="#2563eb"/>
<polyline points="80.0,60.0 316.7,171.0 553.3,393.0 790.0,356.0" fill="none" stroke="#2563eb" stroke-width="2.5"/>
<line x1="80" y1="452" x2="108" y2="452" stroke="#2563eb" stroke-width="3"/>
<text x="116" y="457" font-family="sans-serif" font-size="12">signal</text>
</svg>
